# xmcd
#
# Track frame offsets:
#	150
#	16370
#	37139
#	48851
#	62641
#	87117
#	99449
#	122697
#	141291
#	164223
#	183533
#	206738
#
# Disc length: 3036 seconds
# Revision: 0
# Processed by: cddbd v1.5.2PL0 Copyright (c) Steve Scherf et al.
# Submitted via: dBpowerAMP V12.0
#
DISCID=ab0bda0c
DTITLE=Amnesia Blues Band - We Still Remember
DYEAR=2015
DGENRE=Blues
TTITLE0=Talk To Me Baby
TTITLE1=Molly And Her Man
TTITLE2=Mowing The Lawn
TTITLE3=Oh Yeah My Baby
TTITLE4=Sad Sad Day
TTITLE5=Boom Boom
TTITLE6=Almost Fifty Years
TTITLE7=Walking Away From Love
TTITLE8=What You Gonna Do
TTITLE9=Wild Woman
TTITLE10=Come On In This House
TTITLE11=Woman, You're So Damn Fine
EXTD=
EXTT0=
EXTT1=
EXTT2=
EXTT3=
EXTT4=
EXTT5=
EXTT6=
EXTT7=
EXTT8=
EXTT9=
EXTT10=
EXTT11=
PLAYORDER=
